<?xml version="1.0" encoding="UTF-8" standalone="no"?>
<!-- Created with Inkscape (http://www.inkscape.org/) -->

<svg
   xmlns:dc="http://purl.org/dc/elements/1.1/"
   xmlns:cc="http://creativecommons.org/ns#"
   xmlns:rdf="http://www.w3.org/1999/02/22-rdf-syntax-ns#"
   xmlns:svg="http://www.w3.org/2000/svg"
   xmlns="http://www.w3.org/2000/svg"
   version="1.1"
   width="130.36232"
   height="64.710144"
   viewBox="0 0 104.28986 51.768115"
   id="svg2">
  <defs
     id="defs40" />
  <g
     transform="matrix(0.3647343,0,0,0.3647343,4.0000001,3.999999)"
     id="g3019">
    <path
       d="m 0,0 156.36,0 c -11.54,2.31 -22.72,11.13 -24.59,23.28 0.7,0.07 2.09,0.2 2.79,0.27 -1.03,3.63 -1.66,7.36 -2.37,11.07 -4.86,-1.01 -9.76,-1.82 -14.71,-2.21 -0.16,1.35 -0.27,2.7 -0.37,4.05 -1.26,0.89 -2.28,2.24 -1.6,3.85 4.15,2.6 9.08,3.38 13.79,4.4 -0.63,8.55 -2.62,18.5 3.17,25.79 2.52,2.83 4.62,6.7 8.57,7.67 5.11,0.77 9.72,-2.61 13.13,-6.03 2.09,-2.1 -0.13,-5.95 -3,-5.4 -1.88,1.16 -3.47,2.71 -5.11,4.17 -2.83,-0.78 -6.3,-1.66 -7.12,-4.93 -1.68,-6.59 -1.3,-13.55 -0.78,-20.27 5.4,0.29 10.8,0.83 16.21,0.55 -0.49,-1.34 -0.14,-3.32 -1.74,-3.98 -4.19,-2.4 -8.87,-3.8 -13.3,-5.71 0.51,-3.63 1.1,-7.26 2,-10.82 0.15,-0.31 0.45,-0.92 0.6,-1.23 2.44,0.52 5.54,-0.06 7.34,2.07 2.01,2.13 4.46,3.74 6.82,5.45 1.79,2.83 2.72,6.26 5.3,8.57 4.8,5.01 12.01,5.86 18.33,7.74 -1.78,6.24 -9.22,7.8 -12.67,12.82 -2.04,3.23 -4.62,6.72 -2.89,10.73 0.53,-1.8 1.01,-3.61 1.48,-5.43 0.5,1.19 1,2.38 1.5,3.57 5.82,1.42 11.64,-2.61 17.41,-0.44 1.66,0.54 1.72,2.57 2.46,3.88 -5.4,-0.1 -11.1,-1.1 -16.23,1.13 -4.18,1.76 -7.98,5.58 -8.04,10.36 0.17,4.15 3.68,7.4 7.42,8.64 5.23,1.58 10.79,0.34 15.81,-1.45 0.39,0.29 1.18,0.87 1.58,1.17 3.36,-0.18 6.85,0.38 10.12,-0.63 2.35,-0.85 2.37,-4.46 0.54,-5.86 -1.5,-0.63 -3.14,-0.81 -4.71,-1.16 0.01,-4.84 0.12,-9.68 0,-14.52 -0.05,-3.65 -2.95,-6.23 -4.94,-8.97 -2.24,-2.53 -5.97,-2.04 -9.02,-2.08 2.93,-1.23 5.89,-2.43 8.89,-3.52 2.07,0.54 4.37,1.16 6.4,0.08 2.52,-1.07 3.1,-4.01 3.88,-6.34 5.61,-1.83 10.4,-5.37 15.62,-8.02 3.96,-3.01 8.49,-5.45 11.64,-9.4 2.02,-2.68 5.21,-3.98 7.74,-6.09 2.85,-2.36 6.61,-3.58 8.74,-6.78 4.31,-0.76 8.72,-0.93 12.98,-1.94 3.32,-1.84 6.44,-4.23 8.57,-7.43 L 264,120 0,120 0,73.78 c 11.14,6.37 22.37,12.6 33.65,18.7 3.34,2.36 7.69,-3.07 4.31,-5.6 -7.6,-4.74 -15.67,-8.74 -23.44,-13.21 7.07,-3.99 14.2,-7.88 21.29,-11.83 1.22,-0.81 2.76,-1.52 3.26,-3.01 -0.11,-1.22 -0.41,-2.42 -0.66,-3.62 -1.1,-0.38 -2.2,-0.75 -3.3,-1.13 C 23.27,60.27 11.73,67.02 0,73.4 L 0,0 z"
       id="path4"
       style="fill:#ffffff" />
    <path
       d="m 156.36,0 4.03,0 c 5.92,1.05 11.88,2.21 17.51,4.38 2.55,1.2 5.32,0.19 7.95,-0.12 7.07,-1.02 14.06,0.99 21.08,1.47 4.71,0.4 9.52,0.33 14.09,1.7 7.9,3.16 16.72,2.97 25,1.56 5.97,-1.03 12.02,-0.37 17.98,0.38 l 0,1.3 c -2.13,3.2 -5.25,5.59 -8.57,7.43 -4.26,1.01 -8.67,1.18 -12.98,1.94 -2.13,3.2 -5.89,4.42 -8.74,6.78 -2.53,2.11 -5.72,3.41 -7.74,6.09 -3.15,3.95 -7.68,6.39 -11.64,9.4 -5.22,2.65 -10.01,6.19 -15.62,8.02 -0.78,2.33 -1.36,5.27 -3.88,6.34 -2.03,1.08 -4.33,0.46 -6.4,-0.08 -3,1.09 -5.96,2.29 -8.89,3.52 3.05,0.04 6.78,-0.45 9.02,2.08 1.99,2.74 4.89,5.32 4.94,8.97 0.12,4.84 0.01,9.68 0,14.52 1.57,0.35 3.21,0.53 4.71,1.16 1.83,1.4 1.81,5.01 -0.54,5.86 -3.27,1.01 -6.76,0.45 -10.12,0.63 -0.4,-0.3 -1.19,-0.88 -1.58,-1.17 -5.02,1.79 -10.58,3.03 -15.81,1.45 -3.74,-1.24 -7.25,-4.49 -7.42,-8.64 0.06,-4.78 3.86,-8.6 8.04,-10.36 5.13,-2.23 10.83,-1.23 16.23,-1.13 -0.74,-1.31 -0.8,-3.34 -2.46,-3.88 -5.77,-2.17 -11.59,1.86 -17.41,0.44 -0.5,-1.19 -1,-2.38 -1.5,-3.57 -0.47,1.82 -0.95,3.63 -1.48,5.43 -1.73,-4.01 0.85,-7.5 2.89,-10.73 3.45,-5.02 10.89,-6.58 12.67,-12.82 -6.32,-1.88 -13.53,-2.73 -18.33,-7.74 -2.58,-2.31 -3.51,-5.74 -5.3,-8.57 -2.36,-1.71 -4.81,-3.32 -6.82,-5.45 -1.8,-2.13 -4.9,-1.55 -7.34,-2.07 -0.15,0.31 -0.45,0.92 -0.6,1.23 0.19,-2.48 0.25,-4.96 0.34,-7.43 -3.27,0.37 -6.36,1.7 -7.11,5.23 -0.7,-0.07 -2.09,-0.2 -2.79,-0.27 C 133.64,11.13 144.82,2.31 156.36,0 z"
       id="path6"
       style="fill:#010101" />
    <path
       d="M 160.39,0 264,0 l 0,9.37 c -5.96,-0.75 -12.01,-1.41 -17.98,-0.38 -8.28,1.41 -17.1,1.6 -25,-1.56 -4.57,-1.37 -9.38,-1.3 -14.09,-1.7 -7.02,-0.48 -14.01,-2.49 -21.08,-1.47 -2.63,0.31 -5.4,1.32 -7.95,0.12 C 172.27,2.21 166.31,1.05 160.39,0 z"
       id="path8"
       style="fill:#ffffff" />
    <path
       d="m 143.71,12.24 c 2.77,-4.96 8.77,-7.69 14.26,-8.24 6.78,0.63 13.53,2.26 19.86,4.81 -3.12,3.14 -6.51,6.15 -10.74,7.67 -2.78,1.03 -3.22,4.27 -3.26,6.84 1.26,-0.15 2.52,-0.29 3.78,-0.42 0.14,-3.16 3.5,-3.4 5.62,-4.81 3.64,-2.2 6.46,-5.44 9.48,-8.39 1.32,-1.41 3.38,-1.52 5.17,-1.68 6.45,-0.25 12.76,1.45 19.17,1.79 4.45,0.29 8.96,0.42 13.3,1.56 0.16,0.38 0.48,1.15 0.64,1.53 2.5,0.2 5,0.42 7.5,0.68 -0.1,0.31 -0.29,0.95 -0.39,1.27 1.05,0.24 3.15,0.71 4.2,0.94 -5.06,2.41 -10.37,4.31 -15.17,7.26 -3.48,2.29 -7.67,2.98 -11.49,4.48 -3.63,1.43 -7.74,1.02 -11.25,2.84 -3.04,1.54 -6.38,2.29 -9.58,3.43 -2.6,0.94 -4.71,-1.34 -6.66,-2.67 -0.92,0.96 -1.84,1.92 -2.75,2.89 2.68,2.9 6.72,4.86 10.72,3.75 3.74,-1.18 7.5,-2.36 11.03,-4.13 8.66,-1.65 17.43,-3.92 24.99,-8.65 3.9,-2.28 8.3,-3.5 12.29,-5.57 2.07,-1.01 3.03,-3.12 2.92,-5.36 6.04,-0.28 11.99,-1.87 18.08,-1.48 -0.42,0.43 -1.25,1.3 -1.67,1.74 -4.77,0.82 -9.59,1.26 -14.38,1.96 -0.84,1.43 -1.41,3.26 -3.14,3.86 -3.62,1.62 -6.19,4.81 -9.75,6.54 -2.82,1.39 -3.99,4.58 -6.44,6.41 -4.46,3.01 -8.51,6.63 -13.58,8.63 -3.41,2.62 -7.41,4.23 -11.52,5.4 -0.33,2.21 -0.79,4.44 -2.09,6.3 -0.18,-2.39 0.88,-5.31 -1.11,-7.23 -7.64,-1.25 -15.41,-2.42 -22.66,-5.29 -4.98,-2.02 -8.33,-6.87 -9.06,-12.12 -4.06,-1.12 -7.09,-4.17 -9.75,-7.27 -0.62,-1.46 -0.22,-3.18 -0.4,-4.74 -1.97,-1.65 -3.62,-3.74 -6.17,-4.53 z"
       id="path10"
       style="fill:#ffffff" />
    <path
       d="m 149.31,9.75 c 1.7,-0.11 3.4,-0.06 5.11,0.08 -0.68,2.82 -3.09,3.94 -5.84,3.45 0.18,-0.89 0.54,-2.65 0.73,-3.53 z"
       id="path12"
       style="fill:#010101" />
    <path
       d="m 137.03,19.13 c 1.17,-2.08 2.47,-4.09 3.86,-6.03 1.69,0.94 3.42,1.82 5.12,2.75 -3.14,0.65 -6.09,1.93 -8.98,3.28 z"
       id="path14"
       style="fill:#ffffff" />
    <path
       d="m 142.04,20.64 c 2,-0.94 3.83,-2.2 5.45,-3.71 0.29,1.4 0.5,2.81 0.83,4.2 -2.09,-0.2 -4.18,-0.41 -6.28,-0.49 z"
       id="path16"
       style="fill:#ffffff" />
    <path
       d="m 142.08,18.25 c 0.54,0.55 0.54,0.55 0,0 z"
       id="path18"
       style="fill:#0a51a0" />
    <path
       d="m 134.56,23.55 c 0.75,-3.53 3.84,-4.86 7.11,-5.23 -0.09,2.47 -0.15,4.95 -0.34,7.43 -0.9,3.56 -1.49,7.19 -2,10.82 4.43,1.91 9.11,3.31 13.3,5.71 1.6,0.66 1.25,2.64 1.74,3.98 -5.41,0.28 -10.81,-0.26 -16.21,-0.55 -0.52,6.72 -0.9,13.68 0.78,20.27 0.82,3.27 4.29,4.15 7.12,4.93 1.64,-1.46 3.23,-3.01 5.11,-4.17 2.87,-0.55 5.09,3.3 3,5.4 -3.41,3.42 -8.02,6.8 -13.13,6.03 -3.95,-0.97 -6.05,-4.84 -8.57,-7.67 -5.79,-7.29 -3.8,-17.24 -3.17,-25.79 -4.71,-1.02 -9.64,-1.8 -13.79,-4.4 -0.68,-1.61 0.34,-2.96 1.6,-3.85 0.1,-1.35 0.21,-2.7 0.37,-4.05 4.95,0.39 9.85,1.2 14.71,2.21 0.71,-3.71 1.34,-7.44 2.37,-11.07 z"
       id="path20"
       style="fill:#0a51a0" />
    <path
       d="m 71.09,55.85 c -1.87,-1.86 -0.88,-5.71 1.92,-5.96 3.41,-0.39 6.85,-0.1 10.27,-0.16 -0.04,12.01 0.08,24.03 -0.06,36.05 1.9,0.44 4.58,0.14 5.5,2.31 1.25,2.53 -0.98,5.5 -3.75,5.13 -3.08,-0.36 -7.12,1.3 -9.49,-1.13 -6.78,3.29 -15.81,3.27 -21.66,-1.89 -7.06,-6.01 -6.5,-18.14 0.49,-23.98 5.73,-5.63 15.14,-5.52 21.7,-1.41 0,-2.63 -0.01,-5.26 -0.01,-7.89 -1.64,-0.26 -3.56,0.1 -4.91,-1.07 z"
       id="path22"
       style="fill:#010101" />
    <path
       d="m 105.46,50 c 2.78,-0.01 5.55,0 8.32,0 -0.01,2.51 0,5.02 -0.01,7.53 -2.77,0 -5.54,0 -8.31,-0.02 0.01,-2.5 0.02,-5.01 0,-7.51 z"
       id="path24"
       style="fill:#010101" />
    <path
       d="m 180.28,53.55 c 3.16,0.3 6.19,-0.82 8.56,-2.89 -0.29,1.09 -0.56,2.19 -0.81,3.29 -5.37,2.01 -10.98,3.44 -16.03,6.21 2.69,-2.29 5.46,-4.48 8.28,-6.61 z"
       id="path26"
       style="fill:#ffffff" />
    <path
       d="m 0,73.4 c 11.73,-6.38 23.27,-13.13 35.11,-19.32 1.1,0.38 2.2,0.75 3.3,1.13 0.25,1.2 0.55,2.4 0.66,3.62 -0.5,1.49 -2.04,2.2 -3.26,3.01 -7.09,3.95 -14.22,7.84 -21.29,11.83 7.77,4.47 15.84,8.47 23.44,13.21 3.38,2.53 -0.97,7.96 -4.31,5.6 C 22.37,86.38 11.14,80.15 0,73.78 L 0,73.4 z"
       id="path28"
       style="fill:#010101" />
    <path
       d="m 208.19,55.18 c 0.71,-0.28 2.12,-0.84 2.82,-1.12 12.04,6.2 23.72,13.11 35.63,19.56 -11.08,6.23 -22.2,12.41 -33.34,18.54 -1.66,1.31 -3.58,0.64 -5.35,0.02 -0.62,-1.76 -1.5,-4.25 0.51,-5.47 7.66,-4.53 15.54,-8.72 23.33,-13.04 -7.39,-4.1 -14.8,-8.17 -22.17,-12.31 -1.39,-0.65 -2.11,-2.05 -2.89,-3.29 0.49,-0.96 0.98,-1.92 1.46,-2.89 z"
       id="path30"
       style="fill:#010101" />
    <path
       d="m 98.88,63.01 c 5.21,-0.51 10.44,0.18 15.67,0.02 -0.15,7.72 0.27,15.46 -0.34,23.17 3.56,0.46 7.19,-0.04 10.73,0.55 3.16,0.7 2.86,6.32 -0.44,6.64 -8.47,0.49 -16.96,-0.15 -25.44,-0.12 -1.7,0 -4.28,-0.33 -4.55,-2.41 -0.81,-1.92 0.56,-4.44 2.7,-4.55 3.33,-0.25 6.67,-0.05 10.01,-0.08 -0.05,-5.41 0.01,-10.81 0.3,-16.2 -3.09,-0.29 -6.69,0.75 -9.4,-1.15 -1.69,-1.81 -0.68,-4.29 0.76,-5.87 z"
       id="path32"
       style="fill:#010101" />
    <path
       d="m 62.45,69.6 c 6.59,-2.82 14.69,3.37 13.48,10.47 -1.5,8.92 -16.27,9.69 -19.47,1.57 -1.79,-4.8 1.36,-10.31 5.99,-12.04 z"
       id="path34"
       style="fill:#ffffff" />
    <path
       d="m 169.82,84.22 c 4.14,-4.86 10.95,-4.26 16.6,-3.27 0.02,0.71 0.05,2.14 0.07,2.86 -4.13,2.13 -8.85,4.08 -13.57,3.1 -1.56,-0.09 -2.19,-1.71 -3.1,-2.69 z"
       id="path36"
       style="fill:#ffffff" />
  </g>
</svg>
